<svg width="1600" height="900" viewBox="0 0 1600 900" fill="none" xmlns="http://www.w3.org/2000/svg">
  <defs>
    <linearGradient id="cardFill" x1="0" y1="0" x2="0" y2="1">
      <stop offset="0%" stop-color="#F8FAFC" />
      <stop offset="100%" stop-color="#EEF2F7" />
    </linearGradient>
    <linearGradient id="bg" x1="0" y1="0" x2="1" y2="1">
      <stop offset="0%" stop-color="#F8FAFC" />
      <stop offset="100%" stop-color="#EEF4FF" />
    </linearGradient>
    <filter id="shadow" x="-20%" y="-20%" width="140%" height="140%">
      <feDropShadow dx="0" dy="10" stdDeviation="16" flood-color="#0F172A" flood-opacity="0.10" />
    </filter>
    <marker id="arrow" viewBox="0 0 10 10" refX="8" refY="5" markerWidth="8" markerHeight="8" orient="auto-start-reverse">
      <path d="M0 0L10 5L0 10V0Z" fill="#334155" />
    </marker>
    <style>
      .title { font-family: Helvetica, Arial, sans-serif; font-size: 18px; font-weight: 700; fill: #0F172A; letter-spacing: 0.04em; }
      .label { font-family: Helvetica, Arial, sans-serif; font-size: 17px; font-weight: 600; fill: #0F172A; }
      .subtle { font-family: Helvetica, Arial, sans-serif; font-size: 13px; font-weight: 500; fill: #475569; }
      .edge { stroke: #334155; stroke-width: 3; stroke-linecap: round; stroke-linejoin: round; marker-end: url(#arrow); }
      .card { fill: url(#cardFill); stroke: #0F172A; stroke-width: 3; filter: url(#shadow); }
    </style>
  </defs>

  <rect x="0" y="0" width="1600" height="900" fill="url(#bg)" />
  <circle cx="180" cy="130" r="180" fill="#DCEAFE" opacity="0.55" />
  <circle cx="1390" cy="760" r="240" fill="#E2E8F0" opacity="0.55" />

  <text x="800" y="70" text-anchor="middle" class="title">RUST DESCRIPTOR WALLET ARCHITECTURE</text>

  <rect class="card" x="30" y="250" rx="28" ry="28" width="270" height="130" />
  <text x="165" y="312" text-anchor="middle" class="label">wallet_desktop</text>
  <text x="165" y="340" text-anchor="middle" class="subtle">Tauri frontend</text>

  <rect class="card" x="30" y="430" rx="28" ry="28" width="270" height="130" />
  <text x="165" y="492" text-anchor="middle" class="label">wallet_cli</text>
  <text x="165" y="520" text-anchor="middle" class="subtle">command-line frontend</text>

  <rect class="card" x="380" y="170" rx="28" ry="28" width="300" height="130" />
  <text x="530" y="232" text-anchor="middle" class="label">wallet_api</text>
  <text x="530" y="260" text-anchor="middle" class="subtle">commands and orchestration</text>

  <rect class="card" x="870" y="170" rx="28" ry="28" width="360" height="130" />
  <text x="1050" y="232" text-anchor="middle" class="label">wallet_core (BDK)</text>
  <text x="1050" y="260" text-anchor="middle" class="subtle">wallet logic and PSBT flow</text>

  <ellipse class="card" cx="1445" cy="235" rx="120" ry="56" />
  <text x="1445" y="242" text-anchor="middle" class="label">Blockchain</text>

  <rect class="card" x="290" y="620" rx="28" ry="28" width="300" height="130" />
  <text x="440" y="682" text-anchor="middle" class="label">wallet_sync</text>
  <text x="440" y="710" text-anchor="middle" class="subtle">Esplora, Electrum, Core RPC</text>

  <rect class="card" x="790" y="620" rx="28" ry="28" width="300" height="130" />
  <text x="940" y="682" text-anchor="middle" class="label">wallet_storage</text>
  <text x="940" y="710" text-anchor="middle" class="subtle">local persistence</text>

  <rect class="card" x="1170" y="620" rx="28" ry="28" width="260" height="130" />
  <text x="1300" y="682" text-anchor="middle" class="label">signer</text>
  <text x="1300" y="710" text-anchor="middle" class="subtle">software and hardware</text>

  <path class="edge" d="M300 315L380 247" />
  <path class="edge" d="M300 495L380 255" />
  <path class="edge" d="M680 235H870" />
  <path class="edge" d="M1230 235H1365" />

  <path class="edge" d="M1000 300L490 620" />
  <path class="edge" d="M1050 300L950 620" />
  <path class="edge" d="M1100 300L1290 620" />
</svg>
