<svg width="1600" height="1270" viewBox="0 0 1600 1270" fill="none" xmlns="http://www.w3.org/2000/svg">
  <defs>
    <linearGradient id="cardFill" x1="0" y1="0" x2="0" y2="1">
      <stop offset="0%" stop-color="#F8FAFC" />
      <stop offset="100%" stop-color="#EEF2F7" />
    </linearGradient>
    <linearGradient id="accentFill" x1="0" y1="0" x2="1" y2="1">
      <stop offset="0%" stop-color="#DBEAFE" />
      <stop offset="100%" stop-color="#E0F2FE" />
    </linearGradient>
    <linearGradient id="bg" x1="0" y1="0" x2="1" y2="1">
      <stop offset="0%" stop-color="#F8FAFC" />
      <stop offset="100%" stop-color="#EEF4FF" />
    </linearGradient>
    <filter id="shadow" x="-20%" y="-20%" width="140%" height="140%">
      <feDropShadow dx="0" dy="10" stdDeviation="16" flood-color="#0F172A" flood-opacity="0.10" />
    </filter>
    <marker id="arrow" viewBox="0 0 10 10" refX="8" refY="5" markerWidth="8" markerHeight="8" orient="auto-start-reverse">
      <path d="M0 0L10 5L0 10V0Z" fill="#334155" />
    </marker>
    <style>
      .title { font-family: Helvetica, Arial, sans-serif; font-size: 18px; font-weight: 700; fill: #0F172A; letter-spacing: 0.04em; }
      .lane { font-family: Helvetica, Arial, sans-serif; font-size: 15px; font-weight: 700; fill: #0369A1; letter-spacing: 0.08em; }
      .label { font-family: Helvetica, Arial, sans-serif; font-size: 17px; font-weight: 600; fill: #0F172A; }
      .subtle { font-family: Helvetica, Arial, sans-serif; font-size: 13px; font-weight: 500; fill: #475569; }
      .small { font-family: Helvetica, Arial, sans-serif; font-size: 12px; font-weight: 700; fill: #0369A1; letter-spacing: 0.06em; }
      .edge { stroke: #334155; stroke-width: 3; stroke-linecap: round; stroke-linejoin: round; marker-end: url(#arrow); }
      .card { fill: url(#cardFill); stroke: #0F172A; stroke-width: 3; filter: url(#shadow); }
      .accent { fill: url(#accentFill); stroke: #0F172A; stroke-width: 3; filter: url(#shadow); }
      .laneBox { fill: rgba(255,255,255,0.42); stroke: #CBD5E1; stroke-width: 2; stroke-dasharray: 10 10; }
    </style>
  </defs>

  <rect x="0" y="0" width="1600" height="1270" fill="url(#bg)" />
  <circle cx="120" cy="130" r="150" fill="#DCEAFE" opacity="0.40" />
  <circle cx="1460" cy="1080" r="240" fill="#E2E8F0" opacity="0.42" />

  <text x="800" y="64" text-anchor="middle" class="title">PSBT AND TRANSACTION FLOW</text>

  <rect x="40" y="110" width="1520" height="300" rx="30" class="laneBox" />
  <text x="90" y="150" class="lane">SEND FLOW</text>

  <rect class="card" x="80" y="190" rx="28" ry="28" width="250" height="130" />
  <text x="205" y="246" text-anchor="middle" class="small">INPUT</text>
  <text x="205" y="278" text-anchor="middle" class="label">wallet_core</text>
  <text x="205" y="306" text-anchor="middle" class="subtle">wallet state, UTXOs, policy</text>

  <rect class="accent" x="380" y="190" rx="28" ry="28" width="250" height="130" />
  <text x="505" y="246" text-anchor="middle" class="small">SELECT</text>
  <text x="505" y="278" text-anchor="middle" class="label">Coin Selection</text>
  <text x="505" y="306" text-anchor="middle" class="subtle">policy or strict manual coin control</text>

  <rect class="card" x="680" y="190" rx="28" ry="28" width="250" height="130" />
  <text x="805" y="246" text-anchor="middle" class="small">CREATE</text>
  <text x="805" y="278" text-anchor="middle" class="label">Unsigned PSBT</text>
  <text x="805" y="306" text-anchor="middle" class="subtle">recipient, amount, send-max, or sweep</text>

  <rect class="card" x="980" y="190" rx="28" ry="28" width="250" height="130" />
  <text x="1105" y="246" text-anchor="middle" class="small">SIGN</text>
  <text x="1105" y="278" text-anchor="middle" class="label">Signer</text>
  <text x="1105" y="306" text-anchor="middle" class="subtle">software or hardware keys</text>

  <rect class="card" x="1280" y="190" rx="28" ry="28" width="250" height="130" />
  <text x="1405" y="246" text-anchor="middle" class="small">FINALIZE</text>
  <text x="1405" y="278" text-anchor="middle" class="label">Finalized PSBT</text>
  <text x="1405" y="306" text-anchor="middle" class="subtle">extract transaction hex</text>

  <rect class="card" x="1280" y="340" rx="28" ry="28" width="250" height="90" />
  <text x="1405" y="392" text-anchor="middle" class="label">wallet_sync</text>
  <text x="1405" y="418" text-anchor="middle" class="subtle">publish through configured backend</text>

  <rect class="card" x="820" y="340" rx="28" ry="28" width="320" height="90" />
  <text x="980" y="392" text-anchor="middle" class="label">wallet_api</text>
  <text x="980" y="418" text-anchor="middle" class="subtle">orchestrates select, create, sign, finalize, publish</text>

  <path class="edge" d="M330 255H380" />
  <path class="edge" d="M630 255H680" />
  <path class="edge" d="M930 255H980" />
  <path class="edge" d="M1230 255H1280" />
  <path class="edge" d="M1405 320V340" />
  <path class="edge" d="M980 340V320" />

  <rect x="40" y="470" width="1520" height="320" rx="30" class="laneBox" />
  <text x="90" y="510" class="lane">RBF FEE-BUMP FLOW</text>

  <rect class="card" x="80" y="560" rx="28" ry="28" width="250" height="130" />
  <text x="205" y="616" text-anchor="middle" class="small">INSPECT</text>
  <text x="205" y="648" text-anchor="middle" class="label">Tracked Tx</text>
  <text x="205" y="676" text-anchor="middle" class="subtle">unconfirmed and replaceable</text>

  <rect class="accent" x="380" y="560" rx="28" ry="28" width="250" height="130" />
  <text x="505" y="616" text-anchor="middle" class="small">REBUILD</text>
  <text x="505" y="648" text-anchor="middle" class="label">Replacement PSBT</text>
  <text x="505" y="676" text-anchor="middle" class="subtle">same spend, higher fee rate</text>

  <rect class="card" x="680" y="560" rx="28" ry="28" width="250" height="130" />
  <text x="805" y="616" text-anchor="middle" class="small">SIGN</text>
  <text x="805" y="648" text-anchor="middle" class="label">Signer</text>
  <text x="805" y="676" text-anchor="middle" class="subtle">approve replacement tx</text>

  <rect class="card" x="980" y="560" rx="28" ry="28" width="250" height="130" />
  <text x="1105" y="616" text-anchor="middle" class="small">FINALIZE</text>
  <text x="1105" y="648" text-anchor="middle" class="label">Replacement Tx</text>
  <text x="1105" y="676" text-anchor="middle" class="subtle">ready for rebroadcast</text>

  <rect class="card" x="1280" y="560" rx="28" ry="28" width="250" height="130" />
  <text x="1405" y="616" text-anchor="middle" class="small">PUBLISH</text>
  <text x="1405" y="648" text-anchor="middle" class="label">wallet_sync</text>
  <text x="1405" y="676" text-anchor="middle" class="subtle">Esplora publish of replacement</text>

  <rect class="card" x="640" y="710" rx="28" ry="28" width="320" height="90" />
  <text x="800" y="762" text-anchor="middle" class="label">wallet_api</text>
  <text x="800" y="788" text-anchor="middle" class="subtle">orchestrates inspect, bump, sign, publish</text>

  <path class="edge" d="M330 625H380" />
  <path class="edge" d="M630 625H680" />
  <path class="edge" d="M930 625H980" />
  <path class="edge" d="M1230 625H1280" />
  <path class="edge" d="M800 710V690" />

  <rect x="40" y="850" width="1520" height="320" rx="30" class="laneBox" />
  <text x="90" y="890" class="lane">CPFP FLOW</text>

  <rect class="card" x="80" y="940" rx="28" ry="28" width="250" height="130" />
  <text x="205" y="996" text-anchor="middle" class="small">INSPECT</text>
  <text x="205" y="1028" text-anchor="middle" class="label">Parent Tx</text>
  <text x="205" y="1056" text-anchor="middle" class="subtle">unconfirmed wallet-owned output</text>

  <rect class="accent" x="380" y="940" rx="28" ry="28" width="250" height="130" />
  <text x="505" y="996" text-anchor="middle" class="small">SELECT</text>
  <text x="505" y="1028" text-anchor="middle" class="label">Child Input</text>
  <text x="505" y="1056" text-anchor="middle" class="subtle">prefer change, fallback to largest</text>

  <rect class="card" x="680" y="940" rx="28" ry="28" width="250" height="130" />
  <text x="805" y="996" text-anchor="middle" class="small">CREATE</text>
  <text x="805" y="1028" text-anchor="middle" class="label">CPFP PSBT</text>
  <text x="805" y="1056" text-anchor="middle" class="subtle">child spend at higher fee rate</text>

  <rect class="card" x="980" y="940" rx="28" ry="28" width="250" height="130" />
  <text x="1105" y="996" text-anchor="middle" class="small">SIGN</text>
  <text x="1105" y="1028" text-anchor="middle" class="label">Signer</text>
  <text x="1105" y="1056" text-anchor="middle" class="subtle">approve child transaction</text>

  <rect class="card" x="1280" y="940" rx="28" ry="28" width="250" height="130" />
  <text x="1405" y="996" text-anchor="middle" class="small">PUBLISH</text>
  <text x="1405" y="1028" text-anchor="middle" class="label">wallet_sync</text>
  <text x="1405" y="1056" text-anchor="middle" class="subtle">broadcast child and confirm package</text>

  <rect class="card" x="640" y="1090" rx="28" ry="28" width="320" height="90" />
  <text x="800" y="1142" text-anchor="middle" class="label">wallet_api</text>
  <text x="800" y="1168" text-anchor="middle" class="subtle">orchestrates inspect, child build, sign, publish</text>

  <path class="edge" d="M330 1005H380" />
  <path class="edge" d="M630 1005H680" />
  <path class="edge" d="M930 1005H980" />
  <path class="edge" d="M1230 1005H1280" />
  <path class="edge" d="M800 1090V1070" />
</svg>
